<svg id="Layer_1" data-name="Layer 1" xmlns="http://www.w3.org/2000/svg" xmlns:xlink="http://www.w3.org/1999/xlink" viewBox="0 0 100 100"><defs><style>.cls-1{fill:url(#linear-gradient);}.cls-2{fill:url(#linear-gradient-2);}.cls-3{fill:url(#linear-gradient-3);}.cls-4{fill:url(#linear-gradient-4);}.cls-5{fill:url(#linear-gradient-5);}.cls-6{fill:url(#linear-gradient-6);}.cls-7{fill:url(#linear-gradient-7);}.cls-8{fill:url(#linear-gradient-8);}.cls-9{fill:url(#linear-gradient-9);}.cls-10{fill:url(#linear-gradient-10);}.cls-11{fill:url(#linear-gradient-11);}</style><linearGradient id="linear-gradient" x1="8.92" y1="83.32" x2="91.02" y2="83.32" gradientUnits="userSpaceOnUse"><stop offset="0" stop-color="#cebd42"/><stop offset="0.5" stop-color="#f7e93e"/><stop offset="1" stop-color="#cebd42"/></linearGradient><linearGradient id="linear-gradient-2" x1="40.84" y1="33.24" x2="67.33" y2="33.24" xlink:href="#linear-gradient"/><linearGradient id="linear-gradient-3" x1="22.98" y1="53.43" x2="39.62" y2="53.43" xlink:href="#linear-gradient"/><linearGradient id="linear-gradient-4" x1="53.96" y1="68.8" x2="79.13" y2="68.8" xlink:href="#linear-gradient"/><linearGradient id="linear-gradient-5" x1="84.33" y1="50.71" x2="94.41" y2="50.71" xlink:href="#linear-gradient"/><linearGradient id="linear-gradient-6" x1="5.59" y1="50.74" x2="15.68" y2="50.74" xlink:href="#linear-gradient"/><linearGradient id="linear-gradient-7" x1="59.29" y1="80.51" x2="66.59" y2="80.51" xlink:href="#linear-gradient"/><linearGradient id="linear-gradient-8" x1="32.31" y1="27.23" x2="32.34" y2="27.23" xlink:href="#linear-gradient"/><linearGradient id="linear-gradient-9" x1="49.87" y1="22.22" x2="57.12" y2="22.22" xlink:href="#linear-gradient"/><linearGradient id="linear-gradient-10" x1="8.91" y1="16.68" x2="91.02" y2="16.68" xlink:href="#linear-gradient"/><linearGradient id="linear-gradient-11" x1="5.59" y1="50" x2="94.41" y2="50" xlink:href="#linear-gradient"/></defs><path class="cls-1" d="M8.92,67.14h3.32V96.37H87.67V67.42H91V99.5H8.92Z"/><path class="cls-2" d="M46.33,34.92c0,.22,0,.64,0,.86V57.43H40.84V9.09c.2,0,.38,0,.55,0,4.34,0,8.69,0,13,0a19.09,19.09,0,0,1,4.38.59,13.09,13.09,0,0,1,3.9,1.71,6.9,6.9,0,0,1,1.94,1.79,10.37,10.37,0,0,1,1,1.33,19,19,0,0,1,1,2.1A13.06,13.06,0,0,1,67,18.14a19.6,19.6,0,0,1,.35,5.07,11.48,11.48,0,0,1-.21,1.53c0,.24-.1.48-.14.71a9.23,9.23,0,0,1-.69,2.24,9,9,0,0,1-.63,1.24,19.07,19.07,0,0,1-1.09,1.57A9.68,9.68,0,0,1,61,33.24a15.59,15.59,0,0,1-2.84,1,22,22,0,0,1-5.37.48h-6C46.22,34.69,46.33,34.59,46.33,34.92Zm0-.7h.48c1.82,0,3.65,0,5.47,0A12,12,0,0,0,54.35,34a6.68,6.68,0,0,0,2.32-1c.44-.28.79-.68,1.21-1a6.6,6.6,0,0,0,1.65-2,17.35,17.35,0,0,0,1.27-2.77,17.15,17.15,0,0,0,.9-4.06,14.21,14.21,0,0,0-.06-3.51,17.54,17.54,0,0,0-1.24-4.23,10.75,10.75,0,0,0-3.28-4.35A6.85,6.85,0,0,0,53,9.59c-2.13,0-4.27,0-6.4,0a1.7,1.7,0,0,0-.31.06Z"/><path class="cls-3" d="M32.41,27.19c.27.53.68,1,1,1.49a4,4,0,0,1,.22,3.48,1.18,1.18,0,0,1,.07,2.09,1.19,1.19,0,1,1-.2,2.34q1,12.12,2.51,24.21a52.81,52.81,0,0,0,1.17,7,3.64,3.64,0,0,1,.11,2.3c-.15.34-.41.78-.14,1s.38.15.55.25a1.09,1.09,0,0,1,.36.86l1.58,18.11-1.94.21a.85.85,0,0,1-1.15-.91L35.07,75.25a1.11,1.11,0,0,0-.28-.76,1.07,1.07,0,0,0-.73-.16l-6,.07L26.44,90.18H23L24.79,73a2.52,2.52,0,0,1,.33-1.15c.27-.37.78-.69.66-1.12-.07-.25-.32-.38-.52-.54a1.61,1.61,0,0,1,.07-2.42A3.48,3.48,0,0,0,26,67.3a1.7,1.7,0,0,0,.31-.94l3.47-29.81a1.19,1.19,0,0,1-1.3-1,1.18,1.18,0,0,1,1.13-1.22c-.44-.08-.62-.65-.53-1.1a8.5,8.5,0,0,0,.37-1.31,10.28,10.28,0,0,0-.2-1.32c-.08-1,.66-1.89,1.09-2.81a9.58,9.58,0,0,0,.59-4.06c0-1.81,0-3.63,0-5.44,0-.36-.24-2.07.46-1.92S32,17.56,32,18q-.17,3.69,0,7.38A4.67,4.67,0,0,0,32.32,27ZM31.5,62.12a1,1,0,0,0,.14-.12l1.62-2a.77.77,0,0,0,.12-.92c-.33-.64-.66-1.29-1-1.91-.25-.45-.54-.87-.82-1.31-.12,0-.23,0-.27.09-.79,1-1.45,2.09-2.15,3.11l1.14,1.62A9.12,9.12,0,0,0,31.5,62.12Zm-3,5.5a9,9,0,0,0,1.86.11,17.21,17.21,0,0,0,1.9,0h1.95a1.92,1.92,0,0,0-.14-.47c-.79-1-1.59-2.07-2.39-3.1a2.51,2.51,0,0,0-.32-.26A39.62,39.62,0,0,0,28.51,67.62Zm.21-7.43a1.9,1.9,0,0,0-.12.37c-.1,1-.17,2-.29,2.95a9.72,9.72,0,0,1-.25,1.94.74.74,0,0,0,.07.73c.31,0,.36-.33.54-.49a14.85,14.85,0,0,0,1.52-1.84,7.39,7.39,0,0,0,.6-.93A24.5,24.5,0,0,0,28.72,60.19Zm2.86-6.44a.39.39,0,0,0,.13-.06c.43-.6.88-1.19,1.29-1.8a.52.52,0,0,0,.06-.42,6.57,6.57,0,0,0-.39-1.13A11.89,11.89,0,0,0,32,49.26l-.27-.35L30.2,51.33A9.31,9.31,0,0,0,31.58,53.75Zm2.45,7-.11-.05a4.36,4.36,0,0,0-.43.43c-.38.48-.74,1-1.12,1.45s-.28.49,0,.86l.87,1.21c.34.45.68.91,1,1.35.1.12.19.31.41.26ZM28.9,57.36l.11,0a1.16,1.16,0,0,0,.2-.18c.51-.73,1-1.46,1.52-2.18a.65.65,0,0,0,0-.85c-.2-.27-.32-.6-.51-.88a2.67,2.67,0,0,0-.74-1A33,33,0,0,0,28.9,57.36Zm2.86-14.55a4.4,4.4,0,0,0-1,1.71.57.57,0,0,0,0,.29A5.65,5.65,0,0,0,32,47a12.39,12.39,0,0,0,.66-1.11,1.37,1.37,0,0,0,.13-.79A4.63,4.63,0,0,0,31.76,42.81Zm1.52,10.65-.16-.05c-.26.35-.52.69-.77,1a.78.78,0,0,0,0,1c.27.39.51.79.76,1.18l.42.65.09,0A25.05,25.05,0,0,0,33.28,53.46Zm-2.85-7.22A20.16,20.16,0,0,0,29.82,50L30,50l1.37-2.14c-.25-.49-.46-.93-.68-1.36A2,2,0,0,0,30.43,46.24Zm1.33-5.69a1.44,1.44,0,0,0-.19-2.24C30.84,39,31,39.71,31.76,40.55ZM32.4,71.6a.33.33,0,0,0,.17,0,.44.44,0,0,0,.27-.33,1.61,1.61,0,0,0,0-.44,2.56,2.56,0,0,0,0-.62.56.56,0,0,0-.21-.36.4.4,0,0,0-.6.21,1.09,1.09,0,0,0,0,.31l0,.85a.38.38,0,0,0,0,.18.3.3,0,0,0,.12.13A.5.5,0,0,0,32.4,71.6Zm-3.71.17a.1.1,0,0,0,0,0,1.48,1.48,0,0,0,.14-.62,5.08,5.08,0,0,0,0-.78.87.87,0,0,0-.05-.22.4.4,0,0,0-.3-.15.7.7,0,0,0-.32.06c-.08,0-.09.2-.11.28A4.14,4.14,0,0,0,28,71q0,.36,0,.72a.1.1,0,0,0,0,0l0,0,.51,0Zm6.23-1.85h0a.22.22,0,0,0-.13-.08c-.43-.11-.69.35-.7.72a2.38,2.38,0,0,0,.14.78s0,0,0,.06a.11.11,0,0,0,.08,0l.55,0h0a.06.06,0,0,0,0,0c0-.41,0-.82,0-1.23A.38.38,0,0,0,34.92,69.92ZM31.63,29.59s-.29.27-.32.3a1.09,1.09,0,0,0-.15.39,1,1,0,0,0,.17.79c0,.06.2.27.29.25h0a1.05,1.05,0,0,0,.24-.23.63.63,0,0,0,.1-.3c0-.27,0-.54,0-.81v0l0,0C31.86,29.82,31.74,29.71,31.63,29.59ZM30.12,70a.35.35,0,0,0-.05.21v1.1a.23.23,0,0,0,0,.12.2.2,0,0,0,.15.1.65.65,0,0,0,.34,0,.41.41,0,0,0,.11-.07.28.28,0,0,0,0-.12,4.52,4.52,0,0,0,0-1,.54.54,0,0,0-.09-.27.44.44,0,0,0-.39-.1A.23.23,0,0,0,30.12,70Z"/><path class="cls-4" d="M79.13,90.43a3.21,3.21,0,0,1-.89,0,1.06,1.06,0,0,1-.47-.45c-.28-.46-.52-.95-.79-1.43-.69-1.23-1.38-2.45-2.06-3.68-.58-1-1.13-2.13-1.72-3.19-.46-.82-1-1.62-1.44-2.45s-1-1.89-1.56-2.84L68.11,72.5c-.8-1.47-1.6-3-2.43-4.42-.55-1-1.15-1.93-1.71-2.9s-1.07-2-1.61-2.93-.94-1.73-1.42-2.59c-.67-1.23-1.35-2.45-2-3.67l-1.57-2.78c-.66-1.18-1.3-2.36-2-3.54-.24-.43-.68-1.18-.93-1.6,0,.15,0,.55,0,.65,0,.54,0,1.08,0,1.62q0,15.79,0,31.59c0,2.7,0,5.4,0,8.1,0,.11,0,.23,0,.36H54V89.8q0-3.84,0-7.67L54,50.2c0-.72.06-1.43,0-2.14s0-.56,0-.92h6.57L62,49.7c.26.47.54.95.81,1.42.68,1.24,1.36,2.48,2,3.72l2,3.6,1.59,2.8c.46.83.9,1.67,1.36,2.51l1.89,3.42,1.89,3.43c.54,1,1.09,2,1.64,3l2.17,3.92c.38.68.75,1.36,1.13,2l.29.49V78.34q0-15.26,0-30.52c0-.21-.08-.45.18-.67a.85.85,0,0,1,.12.32c0,.34,0,.68,0,1q0,15.19,0,30.38V90.43Z"/><path class="cls-5" d="M89.48,45.65c.21.37.4.68.57,1,.28.53.56,1.06.81,1.6a2.6,2.6,0,0,0,1.31,1.2c.61.32,1.22.66,1.82,1a3.73,3.73,0,0,1,.42.36c-.42.24-.78.47-1.16.67-.57.31-1.16.57-1.71.9A1.67,1.67,0,0,0,91,53c-.55.91-1.08,1.84-1.64,2.81a2.82,2.82,0,0,1-.26-.32c-.43-.82-.87-1.64-1.29-2.47a1.6,1.6,0,0,0-.7-.71c-.81-.44-1.6-.9-2.4-1.36a3.59,3.59,0,0,1-.37-.28l1-.58c.6-.32,1.19-.65,1.81-.94a1.69,1.69,0,0,0,.76-.78c.44-.79.89-1.58,1.35-2.38A3.09,3.09,0,0,1,89.48,45.65Z"/><path class="cls-6" d="M10.76,45.71h0c.16,0,.34.5.42.63A8.22,8.22,0,0,0,12.67,49a5.78,5.78,0,0,0,1.23.77,15.41,15.41,0,0,1,1.78,1.09l-2.84,1.56a2.05,2.05,0,0,0-.36.24,1.73,1.73,0,0,0-.33.47l-1.54,2.7c-.79-.91-1-2.23-1.81-3.11s-2.25-1.21-3.21-2.05a24.28,24.28,0,0,1,2.32-1.21,3.06,3.06,0,0,0,.89-.52,2.9,2.9,0,0,0,.52-.8q.43-.86.93-1.68C10.33,46.28,10.59,45.69,10.76,45.71Z"/><path class="cls-7" d="M59.29,80.47c.67-.35,1.23-.67,1.8-1a1.8,1.8,0,0,0,.88-.84c.24-.48.5-.94.77-1.4a2.2,2.2,0,0,1,.27-.34c.57.73.84,1.58,1.32,2.3l2.26,1.31a2.4,2.4,0,0,1-.36.27c-.56.29-1.12.57-1.67.87a1.91,1.91,0,0,0-.71.88l-.68,1.23a1.87,1.87,0,0,1-.25.29,1.6,1.6,0,0,1-.22-.26c-.3-.55-.58-1.12-.89-1.67a1.59,1.59,0,0,0-.5-.5C60.69,81.27,60.05,80.91,59.29,80.47Z"/><path class="cls-8" d="M32.32,27.25l0,0,0,0Z"/><path class="cls-9" d="M53.46,25.76c-.17-.28-.32-.51-.45-.75s-.34-.69-.51-1A2.26,2.26,0,0,0,51.37,23l-1.5-.84a7.12,7.12,0,0,1,1.21-.67,2.91,2.91,0,0,0,1.86-1.76,12,12,0,0,1,.62-1.09c.2.33.35.57.49.82a7.38,7.38,0,0,0,.84,1.42,6,6,0,0,0,1.34.81c.23.13.46.24.68.38a1.07,1.07,0,0,1,.21.24c-.68.35-1.32.69-2,1a1.46,1.46,0,0,0-.63.65l-.86,1.57C53.64,25.63,53.57,25.66,53.46,25.76Z"/><path class="cls-10" d="M89.25.5H8.91V32.6h3.37v-29H87.72V32.85H91V.5Z"/><path class="cls-11" d="M8.92,67.14h3.32V96.37H87.67V67.42H91V99.5H8.92Z"/><path class="cls-11" d="M46.33,34.92c0,.22,0,.64,0,.86V57.43H40.84V9.09c.2,0,.38,0,.55,0,4.34,0,8.69,0,13,0a19.09,19.09,0,0,1,4.38.59,13.09,13.09,0,0,1,3.9,1.71,6.9,6.9,0,0,1,1.94,1.79,10.37,10.37,0,0,1,1,1.33,19,19,0,0,1,1,2.1A13.06,13.06,0,0,1,67,18.14a19.6,19.6,0,0,1,.35,5.07,11.48,11.48,0,0,1-.21,1.53c0,.24-.1.48-.14.71a9.23,9.23,0,0,1-.69,2.24,9,9,0,0,1-.63,1.24,19.07,19.07,0,0,1-1.09,1.57A9.68,9.68,0,0,1,61,33.24a15.59,15.59,0,0,1-2.84,1,22,22,0,0,1-5.37.48h-6C46.22,34.69,46.33,34.59,46.33,34.92Zm0-.7h.48c1.82,0,3.65,0,5.47,0A12,12,0,0,0,54.35,34a6.68,6.68,0,0,0,2.32-1c.44-.28.79-.68,1.21-1a6.6,6.6,0,0,0,1.65-2,17.35,17.35,0,0,0,1.27-2.77,17.15,17.15,0,0,0,.9-4.06,14.21,14.21,0,0,0-.06-3.51,17.54,17.54,0,0,0-1.24-4.23,10.75,10.75,0,0,0-3.28-4.35A6.85,6.85,0,0,0,53,9.59c-2.13,0-4.27,0-6.4,0a1.7,1.7,0,0,0-.31.06Z"/><path class="cls-11" d="M32.41,27.19c.27.53.68,1,1,1.49a4,4,0,0,1,.22,3.48,1.18,1.18,0,0,1,.07,2.09,1.19,1.19,0,1,1-.2,2.34q1,12.12,2.51,24.21a52.81,52.81,0,0,0,1.17,7,3.64,3.64,0,0,1,.11,2.3c-.15.34-.41.78-.14,1s.38.15.55.25a1.09,1.09,0,0,1,.36.86l1.58,18.11-1.94.21a.85.85,0,0,1-1.15-.91L35.07,75.25a1.11,1.11,0,0,0-.28-.76,1.07,1.07,0,0,0-.73-.16l-6,.07L26.44,90.18H23L24.79,73a2.52,2.52,0,0,1,.33-1.15c.27-.37.78-.69.66-1.12-.07-.25-.32-.38-.52-.54a1.61,1.61,0,0,1,.07-2.42A3.48,3.48,0,0,0,26,67.3a1.7,1.7,0,0,0,.31-.94l3.47-29.81a1.19,1.19,0,0,1-1.3-1,1.18,1.18,0,0,1,1.13-1.22c-.44-.08-.62-.65-.53-1.1a8.5,8.5,0,0,0,.37-1.31,10.28,10.28,0,0,0-.2-1.32c-.08-1,.66-1.89,1.09-2.81a9.58,9.58,0,0,0,.59-4.06c0-1.81,0-3.63,0-5.44,0-.36-.24-2.07.46-1.92S32,17.56,32,18q-.17,3.69,0,7.38A4.67,4.67,0,0,0,32.32,27ZM31.5,62.12a1,1,0,0,0,.14-.12l1.62-2a.77.77,0,0,0,.12-.92c-.33-.64-.66-1.29-1-1.91-.25-.45-.54-.87-.82-1.31-.12,0-.23,0-.27.09-.79,1-1.45,2.09-2.15,3.11l1.14,1.62A9.12,9.12,0,0,0,31.5,62.12Zm-3,5.5a9,9,0,0,0,1.86.11,17.21,17.21,0,0,0,1.9,0h1.95a1.92,1.92,0,0,0-.14-.47c-.79-1-1.59-2.07-2.39-3.1a2.51,2.51,0,0,0-.32-.26A39.62,39.62,0,0,0,28.51,67.62Zm.21-7.43a1.9,1.9,0,0,0-.12.37c-.1,1-.17,2-.29,2.95a9.72,9.72,0,0,1-.25,1.94.74.74,0,0,0,.07.73c.31,0,.36-.33.54-.49a14.85,14.85,0,0,0,1.52-1.84,7.39,7.39,0,0,0,.6-.93A24.5,24.5,0,0,0,28.72,60.19Zm2.86-6.44a.39.39,0,0,0,.13-.06c.43-.6.88-1.19,1.29-1.8a.52.52,0,0,0,.06-.42,6.57,6.57,0,0,0-.39-1.13A11.89,11.89,0,0,0,32,49.26l-.27-.35L30.2,51.33A9.31,9.31,0,0,0,31.58,53.75Zm2.45,7-.11-.05a4.36,4.36,0,0,0-.43.43c-.38.48-.74,1-1.12,1.45s-.28.49,0,.86l.87,1.21c.34.45.68.91,1,1.35.1.12.19.31.41.26ZM28.9,57.36l.11,0a1.16,1.16,0,0,0,.2-.18c.51-.73,1-1.46,1.52-2.18a.65.65,0,0,0,0-.85c-.2-.27-.32-.6-.51-.88a2.67,2.67,0,0,0-.74-1A33,33,0,0,0,28.9,57.36Zm2.86-14.55a4.4,4.4,0,0,0-1,1.71.57.57,0,0,0,0,.29A5.65,5.65,0,0,0,32,47a12.39,12.39,0,0,0,.66-1.11,1.37,1.37,0,0,0,.13-.79A4.63,4.63,0,0,0,31.76,42.81Zm1.52,10.65-.16-.05c-.26.35-.52.69-.77,1a.78.78,0,0,0,0,1c.27.39.51.79.76,1.18l.42.65.09,0A25.05,25.05,0,0,0,33.28,53.46Zm-2.85-7.22A20.16,20.16,0,0,0,29.82,50L30,50l1.37-2.14c-.25-.49-.46-.93-.68-1.36A2,2,0,0,0,30.43,46.24Zm1.33-5.69a1.44,1.44,0,0,0-.19-2.24C30.84,39,31,39.71,31.76,40.55ZM32.4,71.6a.33.33,0,0,0,.17,0,.44.44,0,0,0,.27-.33,1.61,1.61,0,0,0,0-.44,2.56,2.56,0,0,0,0-.62.56.56,0,0,0-.21-.36.4.4,0,0,0-.6.21,1.09,1.09,0,0,0,0,.31l0,.85a.38.38,0,0,0,0,.18.3.3,0,0,0,.12.13A.5.5,0,0,0,32.4,71.6Zm-3.71.17a.1.1,0,0,0,0,0,1.48,1.48,0,0,0,.14-.62,5.08,5.08,0,0,0,0-.78.87.87,0,0,0-.05-.22.4.4,0,0,0-.3-.15.7.7,0,0,0-.32.06c-.08,0-.09.2-.11.28A4.14,4.14,0,0,0,28,71q0,.36,0,.72a.1.1,0,0,0,0,0l0,0,.51,0Zm6.23-1.85h0a.22.22,0,0,0-.13-.08c-.43-.11-.69.35-.7.72a2.38,2.38,0,0,0,.14.78s0,0,0,.06a.11.11,0,0,0,.08,0l.55,0h0a.06.06,0,0,0,0,0c0-.41,0-.82,0-1.23A.38.38,0,0,0,34.92,69.92ZM31.63,29.59s-.29.27-.32.3a1.09,1.09,0,0,0-.15.39,1,1,0,0,0,.17.79c0,.06.2.27.29.25h0a1.05,1.05,0,0,0,.24-.23.63.63,0,0,0,.1-.3c0-.27,0-.54,0-.81v0l0,0C31.86,29.82,31.74,29.71,31.63,29.59ZM30.12,70a.35.35,0,0,0-.05.21v1.1a.23.23,0,0,0,0,.12.2.2,0,0,0,.15.1.65.65,0,0,0,.34,0,.41.41,0,0,0,.11-.07.28.28,0,0,0,0-.12,4.52,4.52,0,0,0,0-1,.54.54,0,0,0-.09-.27.44.44,0,0,0-.39-.1A.23.23,0,0,0,30.12,70Z"/><path class="cls-11" d="M79.13,90.43a3.21,3.21,0,0,1-.89,0,1.06,1.06,0,0,1-.47-.45c-.28-.46-.52-.95-.79-1.43-.69-1.23-1.38-2.45-2.06-3.68-.58-1-1.13-2.13-1.72-3.19-.46-.82-1-1.62-1.44-2.45s-1-1.89-1.56-2.84L68.11,72.5c-.8-1.47-1.6-3-2.43-4.42-.55-1-1.15-1.93-1.71-2.9s-1.07-2-1.61-2.93-.94-1.73-1.42-2.59c-.67-1.23-1.35-2.45-2-3.67l-1.57-2.78c-.66-1.18-1.3-2.36-2-3.54-.24-.43-.68-1.18-.93-1.6,0,.15,0,.55,0,.65,0,.54,0,1.08,0,1.62q0,15.79,0,31.59c0,2.7,0,5.4,0,8.1,0,.11,0,.23,0,.36H54V89.8q0-3.84,0-7.67L54,50.2c0-.72.06-1.43,0-2.14s0-.56,0-.92h6.57L62,49.7c.26.47.54.95.81,1.42.68,1.24,1.36,2.48,2,3.72l2,3.6,1.59,2.8c.46.83.9,1.67,1.36,2.51l1.89,3.42,1.89,3.43c.54,1,1.09,2,1.64,3l2.17,3.92c.38.68.75,1.36,1.13,2l.29.49V78.34q0-15.26,0-30.52c0-.21-.08-.45.18-.67a.85.85,0,0,1,.12.32c0,.34,0,.68,0,1q0,15.19,0,30.38V90.43Z"/><path class="cls-11" d="M89.48,45.65c.21.37.4.68.57,1,.28.53.56,1.06.81,1.6a2.6,2.6,0,0,0,1.31,1.2c.61.32,1.22.66,1.82,1a3.73,3.73,0,0,1,.42.36c-.42.24-.78.47-1.16.67-.57.31-1.16.57-1.71.9A1.67,1.67,0,0,0,91,53c-.55.91-1.08,1.84-1.64,2.81a2.82,2.82,0,0,1-.26-.32c-.43-.82-.87-1.64-1.29-2.47a1.6,1.6,0,0,0-.7-.71c-.81-.44-1.6-.9-2.4-1.36a3.59,3.59,0,0,1-.37-.28l1-.58c.6-.32,1.19-.65,1.81-.94a1.69,1.69,0,0,0,.76-.78c.44-.79.89-1.58,1.35-2.38A3.09,3.09,0,0,1,89.48,45.65Z"/><path class="cls-11" d="M10.76,45.71h0c.16,0,.34.5.42.63A8.22,8.22,0,0,0,12.67,49a5.78,5.78,0,0,0,1.23.77,15.41,15.41,0,0,1,1.78,1.09l-2.84,1.56a2.05,2.05,0,0,0-.36.24,1.73,1.73,0,0,0-.33.47l-1.54,2.7c-.79-.91-1-2.23-1.81-3.11s-2.25-1.21-3.21-2.05a24.28,24.28,0,0,1,2.32-1.21,3.06,3.06,0,0,0,.89-.52,2.9,2.9,0,0,0,.52-.8q.43-.86.93-1.68C10.33,46.28,10.59,45.69,10.76,45.71Z"/><path class="cls-11" d="M59.29,80.47c.67-.35,1.23-.67,1.8-1a1.8,1.8,0,0,0,.88-.84c.24-.48.5-.94.77-1.4a2.2,2.2,0,0,1,.27-.34c.57.73.84,1.58,1.32,2.3l2.26,1.31a2.4,2.4,0,0,1-.36.27c-.56.29-1.12.57-1.67.87a1.91,1.91,0,0,0-.71.88l-.68,1.23a1.87,1.87,0,0,1-.25.29,1.6,1.6,0,0,1-.22-.26c-.3-.55-.58-1.12-.89-1.67a1.59,1.59,0,0,0-.5-.5C60.69,81.27,60.05,80.91,59.29,80.47Z"/><path class="cls-11" d="M32.32,27.25l0,0,0,0Z"/><path class="cls-11" d="M53.46,25.76c-.17-.28-.32-.51-.45-.75s-.34-.69-.51-1A2.26,2.26,0,0,0,51.37,23l-1.5-.84a7.12,7.12,0,0,1,1.21-.67,2.91,2.91,0,0,0,1.86-1.76,12,12,0,0,1,.62-1.09c.2.33.35.57.49.82a7.38,7.38,0,0,0,.84,1.42,6,6,0,0,0,1.34.81c.23.13.46.24.68.38a1.07,1.07,0,0,1,.21.24c-.68.35-1.32.69-2,1a1.46,1.46,0,0,0-.63.65l-.86,1.57C53.64,25.63,53.57,25.66,53.46,25.76Z"/><path class="cls-11" d="M89.25.5H8.91V32.6h3.37v-29H87.72V32.85H91V.5Z"/></svg>